<?xml version="1.0" standalone="no"?>
<!DOCTYPE svg PUBLIC "-//W3C//DTD SVG 20010904//EN"
 "http://www.w3.org/TR/2001/REC-SVG-20010904/DTD/svg10.dtd">
<svg version="1.0" xmlns="http://www.w3.org/2000/svg"
 width="450.000000pt" height="450.000000pt" viewBox="0 0 450.000000 450.000000"
 preserveAspectRatio="xMidYMid meet">
<metadata>
Created by potrace 1.11, written by Peter Selinger 2001-2013
</metadata>
<g transform="translate(0.000000,450.000000) scale(0.100000,-0.100000)"
fill="#000000" stroke="none">
<path d="M763 2912 c-7 -4 -29 -44 -49 -87 -20 -44 -50 -109 -66 -145 -17 -36
-56 -121 -88 -190 -32 -69 -78 -169 -104 -223 -25 -55 -46 -100 -46 -102 0 -1
-22 -49 -49 -106 -27 -57 -61 -131 -76 -164 -35 -76 -83 -180 -125 -270 -17
-38 -39 -86 -48 -105 -8 -19 -17 -38 -19 -42 -2 -3 4 -14 13 -22 20 -21 221
-23 247 -3 13 10 98 179 119 238 6 14 41 16 319 15 l313 -1 51 -113 c72 -160
62 -152 200 -152 104 0 115 2 125 20 8 16 5 32 -16 77 -14 32 -49 108 -76 168
-28 61 -66 144 -85 185 -19 41 -68 147 -108 235 -255 560 -358 781 -369 787
-15 10 -48 10 -63 0z m87 -639 c29 -65 75 -166 101 -225 l48 -108 -209 0 -208
0 24 50 c13 27 24 52 24 54 0 3 15 37 34 78 18 40 53 117 76 171 24 53 46 97
50 97 4 0 31 -53 60 -117z"/>
<path d="M3577 2901 c-291 -66 -530 -322 -573 -616 -48 -329 120 -653 407
-787 114 -54 186 -70 315 -73 174 -4 315 24 464 93 97 44 90 17 90 336 0 155
-4 287 -9 295 -12 18 -433 20 -454 2 -17 -13 -20 -198 -4 -218 6 -9 40 -13
102 -13 l93 0 0 -90 -1 -90 -71 -21 c-192 -58 -374 -18 -502 109 -149 148
-184 372 -88 564 27 55 34 65 89 122 89 92 201 138 329 135 115 -3 180 -25
279 -95 26 -19 53 -34 61 -34 17 0 166 157 166 175 0 45 -175 152 -320 195
-100 31 -263 35 -373 11z"/>
<path d="M1592 2888 c-17 -17 -17 -1419 0 -1436 19 -19 232 -16 248 3 9 11 13
92 14 307 l1 293 338 1 337 1 0 -297 c0 -217 3 -299 12 -308 8 -8 50 -12 124
-12 89 0 114 3 124 16 19 22 19 1406 0 1429 -16 19 -229 22 -248 3 -9 -9 -12
-88 -12 -295 l0 -283 -339 0 -339 0 0 280 c1 212 -2 283 -12 295 -16 19 -229
22 -248 3z"/>
</g>
</svg>
